<?xml version="1.0" encoding="utf-8"?>
<!-- Generator: Adobe Illustrator 15.0.0, SVG Export Plug-In . SVG Version: 6.00 Build 0)  -->
<!DOCTYPE svg PUBLIC "-//W3C//DTD SVG 1.1//EN" "http://www.w3.org/Graphics/SVG/1.1/DTD/svg11.dtd">
<svg version="1.1" id="图层_1" xmlns="http://www.w3.org/2000/svg" xmlns:xlink="http://www.w3.org/1999/xlink" x="0px" y="0px"
	 width="13px" height="13px" viewBox="0 0 15 15" enable-background="new 0 0 15 15" xml:space="preserve">
<g>
	<path fill="#FFFFFF" d="M4,2.7C4,2.865,3.813,3,3.583,3H0.417C0.187,3,0,2.865,0,2.7V0.299C0,0.133,0.187,0,0.417,0h3.166
		C3.813,0,4,0.133,4,0.299V2.7z"/>
	<path fill="#FFFFFF" d="M15,2.5C15,2.775,14.821,3,14.601,3L5.4,3C5.179,3,5,2.775,5,2.5V0.498C5,0.222,5.179,0,5.4,0h9.2
		C14.821,0,15,0.222,15,0.498V2.5z"/>
	<path fill="#FFFFFF" d="M4,8.7C4,8.865,3.813,9,3.583,9H0.417C0.187,9,0,8.865,0,8.7V6.299C0,6.133,0.187,6,0.417,6h3.166
		C3.813,6,4,6.133,4,6.299V8.7z"/>
	<path fill="#FFFFFF" d="M15,8.5C15,8.775,14.821,9,14.601,9H5.4C5.179,9,5,8.775,5,8.5V6.498C5,6.222,5.179,6,5.4,6h9.2
		C14.821,6,15,6.222,15,6.498V8.5z"/>
	<path fill="#FFFFFF" d="M4,14.7C4,14.865,3.813,15,3.583,15H0.417C0.187,15,0,14.865,0,14.7v-2.401C0,12.133,0.187,12,0.417,12
		h3.166C3.813,12,4,12.133,4,12.299V14.7z"/>
	<path fill="#FFFFFF" d="M15,14.5c0,0.275-0.179,0.5-0.399,0.5H5.4C5.179,15,5,14.775,5,14.5v-2.002C5,12.222,5.179,12,5.4,12h9.2
		C14.821,12,15,12.222,15,12.498V14.5z"/>
</g>
</svg>
