<?xml version="1.0" encoding="utf-8"?>
<!-- Generator: Adobe Illustrator 15.0.0, SVG Export Plug-In . SVG Version: 6.00 Build 0)  -->
<!DOCTYPE svg PUBLIC "-//W3C//DTD SVG 1.1//EN" "http://www.w3.org/Graphics/SVG/1.1/DTD/svg11.dtd">
<svg version="1.1" id="图层_1" xmlns="http://www.w3.org/2000/svg" xmlns:xlink="http://www.w3.org/1999/xlink" x="0px" y="0px"
	 width="13px" height="13px" viewBox="0 0 17 17" enable-background="new 0 0 17 17" xml:space="preserve">
<g>
	<path fill="#FFFFFF" d="M6.958,0C3.116,0,0,3.115,0,6.958s3.116,6.958,6.958,6.958c3.843,0,6.959-3.115,6.959-6.958
		S10.802,0,6.958,0z M6.958,11.309c-2.402,0-4.349-1.947-4.349-4.35c0-2.402,1.947-4.349,4.349-4.349
		c2.401,0,4.349,1.947,4.349,4.349C11.309,9.361,9.359,11.309,6.958,11.309z"/>
	<path fill="#FFFFFF" d="M16.725,14.604c0.336,0.336,0.369,0.845,0.076,1.138l-1.061,1.061c-0.293,0.294-0.803,0.259-1.137-0.075
		l-3.941-3.939c-0.334-0.335-0.368-0.844-0.075-1.137l1.062-1.062c0.293-0.294,0.802-0.26,1.138,0.076L16.725,14.604z"/>
</g>
</svg>
