<?xml version="1.0" encoding="utf-8"?>
<!-- Generator: Adobe Illustrator 15.0.0, SVG Export Plug-In . SVG Version: 6.00 Build 0)  -->
<!DOCTYPE svg PUBLIC "-//W3C//DTD SVG 1.1//EN" "http://www.w3.org/Graphics/SVG/1.1/DTD/svg11.dtd">
<svg version="1.1" xmlns="http://www.w3.org/2000/svg" xmlns:xlink="http://www.w3.org/1999/xlink" x="0px" y="0px" width="13px"
	 height="14px" viewBox="0 0 15 16" enable-background="new 0 0 15 16" xml:space="preserve">
<g id="图层_1" display="none">
	<g display="inline">
		<path fill-rule="evenodd" clip-rule="evenodd" fill="#A6A9AF" d="M2.154,5.177C3.579,5.77,5.478,6.096,7.5,6.096
			c4.135,0,7.5-1.367,7.5-3.048C15,1.367,11.635,0,7.5,0C3.363,0,0,1.367,0,3.048C0,3.843,0.765,4.599,2.154,5.177L2.154,5.177z"/>
		<path fill-rule="evenodd" clip-rule="evenodd" fill="#A6A9AF" d="M7.5,7.227c-3.503,0-6.585-1.008-7.5-2.424V6.35
			C0,8.03,3.363,9.397,7.5,9.397c4.135,0,7.5-1.367,7.5-3.048V4.803C14.084,6.219,11.003,7.227,7.5,7.227L7.5,7.227z"/>
		<path fill-rule="evenodd" clip-rule="evenodd" fill="#A6A9AF" d="M7.5,10.528c-3.503,0-6.585-1.009-7.5-2.425V9.65
			c0,1.681,3.363,3.049,7.5,3.049c4.135,0,7.5-1.368,7.5-3.049V8.104C14.084,9.52,11.003,10.528,7.5,10.528L7.5,10.528z"/>
		<path fill-rule="evenodd" clip-rule="evenodd" fill="#A6A9AF" d="M7.5,13.83c-3.503,0-6.585-1.008-7.5-2.425v1.547
			C0,14.633,3.363,16,7.5,16c4.135,0,7.5-1.367,7.5-3.048v-1.547C14.084,12.822,11.003,13.83,7.5,13.83L7.5,13.83z"/>
	</g>
</g>
<g id="图层_2">
	<g>
		<path fill-rule="evenodd" clip-rule="evenodd" fill="#FFFFFF" d="M2.155,5.177C3.579,5.77,5.478,6.096,7.5,6.096
			c4.136,0,7.5-1.367,7.5-3.048C15,1.367,11.636,0,7.5,0C3.363,0,0,1.367,0,3.048C0,3.843,0.765,4.599,2.155,5.177L2.155,5.177z"/>
		<path fill-rule="evenodd" clip-rule="evenodd" fill="#FFFFFF" d="M7.5,7.227c-3.503,0-6.584-1.008-7.5-2.424V6.35
			C0,8.03,3.363,9.397,7.5,9.397c4.136,0,7.5-1.367,7.5-3.048V4.803C14.085,6.219,11.003,7.227,7.5,7.227L7.5,7.227z"/>
		<path fill-rule="evenodd" clip-rule="evenodd" fill="#FFFFFF" d="M7.5,10.528c-3.503,0-6.584-1.009-7.5-2.425V9.65
			c0,1.681,3.363,3.049,7.5,3.049c4.136,0,7.5-1.368,7.5-3.049V8.104C14.085,9.52,11.003,10.528,7.5,10.528L7.5,10.528z"/>
		<path fill-rule="evenodd" clip-rule="evenodd" fill="#FFFFFF" d="M7.5,13.83c-3.503,0-6.584-1.008-7.5-2.425v1.547
			C0,14.633,3.363,16,7.5,16c4.136,0,7.5-1.367,7.5-3.048v-1.547C14.085,12.822,11.003,13.83,7.5,13.83L7.5,13.83z"/>
	</g>
</g>
</svg>
